<svg width="40" height="39" viewBox="0 0 40 39" fill="none" xmlns="http://www.w3.org/2000/svg">
<path d="M19.0489 1.63018C19.3483 0.708866 20.6517 0.708865 20.9511 1.63018L24.9393 13.9047C25.0732 14.3168 25.4571 14.5957 25.8904 14.5957H38.7966C39.7653 14.5957 40.1681 15.8353 39.3844 16.4048L28.943 23.9909C28.5925 24.2455 28.4459 24.6969 28.5798 25.1089L32.568 37.3835C32.8674 38.3048 31.8129 39.0709 31.0292 38.5015L20.5878 30.9154C20.2373 30.6607 19.7627 30.6607 19.4122 30.9154L8.97084 38.5015C8.18713 39.0709 7.13264 38.3048 7.432 37.3835L11.4202 25.1089C11.5541 24.6969 11.4075 24.2455 11.057 23.9909L0.6156 16.4048C-0.168114 15.8354 0.23466 14.5957 1.20338 14.5957H14.1096C14.5429 14.5957 14.9268 14.3168 15.0607 13.9048L19.0489 1.63018Z" fill="#252525"/>
</svg>
