<svg width="46" height="45" viewBox="0 0 46 45" fill="none" xmlns="http://www.w3.org/2000/svg">
<g filter="url(#filter0_d_1011_18245)">
<path d="M22.0489 4.63018C22.3483 3.70887 23.6517 3.70886 23.9511 4.63018L27.9393 16.9047C28.0732 17.3168 28.4571 17.5957 28.8904 17.5957H41.7966C42.7653 17.5957 43.1681 18.8353 42.3844 19.4048L31.943 26.9909C31.5925 27.2455 31.4459 27.6969 31.5798 28.1089L35.568 40.3835C35.8674 41.3048 34.8129 42.0709 34.0292 41.5015L23.5878 33.9154C23.2373 33.6607 22.7627 33.6607 22.4122 33.9154L11.9708 41.5015C11.1871 42.0709 10.1326 41.3048 10.432 40.3835L14.4202 28.1089C14.5541 27.6969 14.4075 27.2455 14.057 26.9909L3.6156 19.4048C2.83189 18.8354 3.23466 17.5957 4.20338 17.5957H17.1096C17.5429 17.5957 17.9268 17.3168 18.0607 16.9048L22.0489 4.63018Z" fill="#FF6D40"/>
</g>
<defs>
<filter id="filter0_d_1011_18245" x="0.203125" y="0.9375" width="45.5938" height="43.7578" filterUnits="userSpaceOnUse" color-interpolation-filters="sRGB">
<feFlood flood-opacity="0" result="BackgroundImageFix"/>
<feColorMatrix in="SourceAlpha" type="matrix" values="0 0 0 0 0 0 0 0 0 0 0 0 0 0 0 0 0 0 127 0" result="hardAlpha"/>
<feOffset/>
<feGaussianBlur stdDeviation="1.5"/>
<feComposite in2="hardAlpha" operator="out"/>
<feColorMatrix type="matrix" values="0 0 0 0 1 0 0 0 0 0.427451 0 0 0 0 0.25098 0 0 0 0.15 0"/>
<feBlend mode="normal" in2="BackgroundImageFix" result="effect1_dropShadow_1011_18245"/>
<feBlend mode="normal" in="SourceGraphic" in2="effect1_dropShadow_1011_18245" result="shape"/>
</filter>
</defs>
</svg>
